<?xml version="1.0" encoding="utf-8"?>
<!-- Generator: Adobe Illustrator 21.1.0, SVG Export Plug-In . SVG Version: 6.00 Build 0)  -->
<svg version="1.1" id="Layer_1" xmlns="http://www.w3.org/2000/svg" xmlns:xlink="http://www.w3.org/1999/xlink" x="0px" y="0px"
	 viewBox="0 0 688 131" style="enable-background:new 0 0 688 131;" xml:space="preserve">
<style type="text/css">
	.st0{fill:#5984A3;}
	.st1{fill:url(#SVGID_1_);}
	.st2{fill:url(#SVGID_2_);}
	.st3{fill:url(#SVGID_3_);}
	.st4{fill:url(#SVGID_4_);}
	.st5{fill:url(#SVGID_5_);}
</style>
<path class="st0" d="M98.9,124.5H26.1c-11.4,0-20.6-9.2-20.6-20.6V31.1c0-11.4,9.2-20.6,20.6-20.6h72.9c11.4,0,20.6,9.2,20.6,20.6
	V104C119.5,115.3,110.3,124.5,98.9,124.5z"/>
<g>
	<g>
		<path class="st0" d="M172.5,42.9l0.2,4.2c-3.6-2.3-7.4-3.7-12.5-3.7c-12.6,0-26.1,10.9-26.1,31.1c0,19.1,9.6,30.9,25,30.9
			c4.9,0,10.1-1.9,14.8-5.5l0.5,4.2h12.3V19.5h-14.3V42.9z M172.5,60.4v26.3c-3.8,4.1-7.4,6-11.4,6c-11.3,0-12.5-12.8-12.5-18.3
			c0-10.6,5.5-18.3,13.1-18.3C165.6,56.1,168.9,57.4,172.5,60.4z"/>
		<path class="st0" d="M221,43.4c-13,0-26.9,10.9-26.9,31.1c0,18.2,11.7,30.9,28.5,30.9c6.7,0,13-2,19.2-6l1.9-1.2l-5.6-10.4
			l-2.3,1.5c-4.1,2.6-8,3.9-12.2,3.9c-8.2,0-13.9-5.3-15.3-14.1h36l0.3-2.1c0.3-1.8,0.4-4,0.4-5.4C245.2,54.1,235.9,43.4,221,43.4z
			 M232.1,67.9h-23.5c1.6-7.4,6.5-12.2,12.7-12.2C229.2,55.7,231.6,61.8,232.1,67.9z"/>
		<path class="st0" d="M273.7,43.4c-7.4,0-15,2.5-22.7,7.4l-2,1.3l6.2,10.8l2.2-1.5c5.3-3.6,10.1-5.4,14.8-5.4c3.4,0,7.9,1,8.6,8.9
			c-16.9,2.1-33.3,6.7-33.3,22.6c0,10.7,7.4,17.9,18.5,17.9c5.3,0,10.5-1.9,16.2-5.9l0.5,4.5h12.3V68.2
			C295.1,52.2,287.5,43.4,273.7,43.4z M280.9,76v11.1c-4.9,4.2-8.4,5.9-12.4,5.9c-4.6,0-7-2.1-7-6.2C261.5,83.1,263.8,78.5,280.9,76
			z"/>
		<path class="st0" d="M321.2,92.6c-0.6,0.1-1.5-0.5-1.5-1.4V19.5h-14.2v71.1c0,12.2,6.6,14.8,12.2,14.8c2.6,0,4.6-0.3,6.3-1.1
			l1.8-0.8l-2-11.4L321.2,92.6z"/>
		<path class="st0" d="M367.5,45.5l-1.9-0.8c-2.1-0.9-4.2-1.3-6.8-1.3c-5.1,0-9.9,2.5-13.8,6.9l-0.4-5.6h-12.4v59.3h14.2V67.2
			c2.8-6.6,6.9-10.5,11.2-10.5c1.9,0,2.9,0.3,4.5,0.8l2.6,0.8L367.5,45.5z"/>
		<path class="st0" d="M391.5,43.4c-13.7,0-27.7,10.7-27.7,31.1c0,20.3,13.9,30.9,27.7,30.9s27.7-10.6,27.7-30.9
			C419.2,54.1,405.3,43.4,391.5,43.4z M391.5,92.8c-7.9,0-13.1-7.4-13.1-18.3c0-11.1,5.3-18.5,13.1-18.5c7.9,0,13.2,7.4,13.2,18.5
			C404.7,85.4,399.4,92.8,391.5,92.8z"/>
		<path class="st0" d="M450.2,43.4c-13.7,0-27.7,10.7-27.7,31.1c0,20.3,13.9,30.9,27.7,30.9s27.7-10.6,27.7-30.9
			C477.9,54.1,463.9,43.4,450.2,43.4z M450.2,92.8c-7.9,0-13.2-7.4-13.2-18.3c0-11.1,5.3-18.5,13.2-18.5s13.2,7.4,13.2,18.5
			C463.3,85.4,458.1,92.8,450.2,92.8z"/>
		<path class="st0" d="M546.2,43.4c-6.9,0-12.5,4-17.1,8.5c-3.1-5.6-8.4-8.5-15.8-8.5c-5.2,0-10.3,2.2-15.2,6.5l-0.5-5.2h-12.4v59.3
			h14.2V63.2c4.2-4.5,8-6.9,11.1-6.9c3.7,0,7.7,0.9,7.7,12v35.7h14.2V63.2c4.3-4.6,7.9-6.9,11.1-6.9c3.9,0,7.6,1.5,7.6,12v35.7h14.2
			V67.1C565.3,47.5,554.9,43.4,546.2,43.4z"/>
	</g>
</g>
<path class="st0" d="M612.3,100.1c-11.8,0-21-10-21-24.3c0-14.5,9.3-24.6,21.2-24.6c4.8,0,8.5,2,11.4,4.3l2.5-3.2
	c-4.2-3.5-8.9-5.2-14.3-5.2c-12.6,0-26.1,9-26.1,28.7c0,17.3,10,28.5,25.4,28.5c5.7,0,11.4-2.1,16.3-5.9l-2.2-3.2
	C621.4,98.4,616.8,100.1,612.3,100.1z"/>
<path class="st0" d="M655.9,47.5c-11.8,0-24.5,8.8-24.5,28.2c0,19.2,12.7,28,24.5,28s24.5-8.8,24.5-28
	C680.4,56.4,667.7,47.5,655.9,47.5z M655.9,100.6c-11.4,0-20.3-10.2-20.3-24.8c0-14.8,8.9-25.1,20.3-25.1
	c11.5,0,20.3,10.1,20.3,25.1C676.2,90.6,667.4,100.6,655.9,100.6z"/>
<circle class="st0" cx="578.1" cy="100.1" r="5.9"/>
<g>
	<path class="st0" d="M119.5,104v-6.6l-3.3-9.2L94.6,50.9L67,51.5L57.6,66l-5.9-9.5L43.2,80l-8.5-8.5l-14.8,25l12.5,28h66.6
		C110.3,124.5,119.5,115.3,119.5,104z"/>
	<linearGradient id="SVGID_1_" gradientUnits="userSpaceOnUse" x1="34.1772" y1="70.8334" x2="114.9044" y2="117.4413">
		<stop  offset="0" style="stop-color:#3F5F88"/>
		<stop  offset="1" style="stop-color:#5984A3"/>
	</linearGradient>
	<path class="st1" d="M119.5,104v-6.6l-3.3-9.2L94.6,50.9L67,51.5L57.6,66l-5.9-9.5L43.2,80l-8.5-8.5l-14.8,25l12.5,28h66.6
		C110.3,124.5,119.5,115.3,119.5,104z"/>
</g>
<linearGradient id="SVGID_2_" gradientUnits="userSpaceOnUse" x1="16.5873" y1="77.7357" x2="38.2877" y2="90.2643">
	<stop  offset="0" style="stop-color:#E4F6FD"/>
	<stop  offset="1" style="stop-color:#CBEDFB"/>
</linearGradient>
<rect x="20.2" y="71.5" class="st2" width="14.5" height="25"/>
<linearGradient id="SVGID_3_" gradientUnits="userSpaceOnUse" x1="30.3189" y1="68.3607" x2="58.5144" y2="84.6393">
	<stop  offset="0" style="stop-color:#E4F6FD"/>
	<stop  offset="1" style="stop-color:#CBEDFB"/>
</linearGradient>
<rect x="37.2" y="56.5" class="st3" width="14.5" height="40"/>
<linearGradient id="SVGID_4_" gradientUnits="userSpaceOnUse" x1="44.9545" y1="59.6107" x2="79.2122" y2="79.3893">
	<stop  offset="0" style="stop-color:#E4F6FD"/>
	<stop  offset="1" style="stop-color:#CBEDFB"/>
</linearGradient>
<rect x="54.8" y="42.5" class="st4" width="14.5" height="54"/>
<linearGradient id="SVGID_5_" gradientUnits="userSpaceOnUse" x1="59.2657" y1="59.9376" x2="97.2663" y2="81.8772">
	<stop  offset="0" style="stop-color:#B3D5EA"/>
	<stop  offset="1" style="stop-color:#68AAD4"/>
</linearGradient>
<path class="st5" d="M69.3,42.5v12.2c0,0,15.2-2.2,15.2,14.8S69.3,84,69.3,84v12.5c0,0,30.3,3.7,30.3-29
	C99.7,38.9,69.3,42.5,69.3,42.5z"/>
</svg>
